<?xml version="1.0" standalone="yes"?>

<svg version="1.1" viewBox="0.0 0.0 1152.0 864.0" fill="none" stroke="none" stroke-linecap="square" stroke-miterlimit="10" xmlns="http://www.w3.org/2000/svg" xmlns:xlink="http://www.w3.org/1999/xlink"><clipPath id="p.0"><path d="m0 0l1152.0 0l0 864.0l-1152.0 0l0 -864.0z" clip-rule="nonzero"></path></clipPath><g clip-path="url(#p.0)"><path fill="#000000" fill-opacity="0.0" d="m0 0l1152.0 0l0 864.0l-1152.0 0z" fill-rule="evenodd"></path><defs><radialGradient id="p.1" gradientUnits="userSpaceOnUse" gradientTransform="matrix(13.351474545508825 0.0 0.0 13.351474545508825 0.0 0.0)" spreadMethod="pad" cx="35.392200024957894" cy="27.066519995536073" fx="35.392200024957894" fy="27.066519995536073" r="13.35147476196289"><stop offset="0.0" stop-color="#ff009e" stop-opacity="0.65882355"></stop><stop offset="1.0" stop-color="#ff009e" stop-opacity="0.44313726"></stop></radialGradient></defs><path fill="url(#p.1)" d="m323.3727 361.37796l0 0c0 -53.906464 66.7836 -97.60629 149.16534 -97.60629l0 0c82.381744 0 149.16537 43.69983 149.16537 97.60629l0 0c0 53.906464 -66.78363 97.60629 -149.16537 97.60629l0 0c-82.381744 0 -149.16534 -43.69983 -149.16534 -97.60629z" fill-rule="evenodd"></path><path fill="#000000" fill-opacity="0.0" d="m318.36746 263.77167l326.3622 0l0 133.16534l-326.3622 0z" fill-rule="evenodd"></path><path fill="#ffffff" d="m370.7581 324.99542q10.109375 0 18.171875 4.609375q8.0625 4.609375 12.734375 12.796875q4.671875 8.1875 4.671875 18.3125q0 10.109375 -4.609375 18.234375q-4.59375 8.125 -12.734375 12.734375q-8.125 4.609375 -18.234375 4.609375q-10.109375 0 -18.234375 -4.609375q-8.125 -4.609375 -12.734375 -12.734375q-4.609375 -8.125 -4.609375 -18.234375q0 -10.125 4.609375 -18.3125q4.609375 -8.1875 12.734375 -12.796875q8.125 -4.609375 18.234375 -4.609375zm0 8.953125q-7.296875 0 -13.25 3.46875q-5.953125 3.453125 -9.34375 9.53125q-3.390625 6.078125 -3.390625 13.765625q0 7.546875 3.390625 13.625q3.390625 6.078125 9.34375 9.546875q5.953125 3.453125 13.25 3.453125q7.421875 0 13.3125 -3.453125q5.890625 -3.46875 9.21875 -9.546875q3.328125 -6.078125 3.328125 -13.625q0 -7.6875 -3.328125 -13.765625q-3.328125 -6.078125 -9.21875 -9.53125q-5.890625 -3.46875 -13.3125 -3.46875zm56.82788 -3.328125q0 -2.171875 1.40625 -3.578125q1.421875 -1.40625 3.59375 -1.40625q2.171875 0 3.515625 1.40625q1.34375 1.40625 1.34375 3.578125l0 60.046875q0 2.171875 -1.34375 3.578125q-1.34375 1.40625 -3.515625 1.40625q-2.171875 0 -3.59375 -1.40625q-1.40625 -1.40625 -1.40625 -3.578125l0 -60.046875zm5.0 -32.25q2.8125 0 4.859375 1.921875q2.046875 1.921875 2.046875 4.984375q0 2.953125 -2.046875 5.0q-2.046875 2.046875 -5.0 2.046875q-2.9375 0 -4.921875 -2.046875q-1.984375 -2.046875 -1.984375 -5.0q0 -3.0625 2.046875 -4.984375q2.046875 -1.921875 5.0 -1.921875zm63.10138 26.5q9.09375 0 16.3125 3.84375q7.2344055 3.828125 11.3281555 11.1875q4.109375 7.359375 4.109375 17.609375l0 33.28125q0 2.046875 -1.421875 3.453125q-1.40625 1.40625 -3.453125 1.40625q-2.171875 0 -3.578125 -1.40625q-1.40625 -1.40625 -1.40625 -3.453125l0 -33.28125q0 -11.390625 -6.3437805 -17.34375q-6.328125 -5.953125 -16.578125 -5.953125q-6.265625 0 -11.328125 2.4375q-5.046875 2.421875 -8.0 6.71875q-2.9375 4.28125 -2.9375 9.53125l0 37.890625q0 2.171875 -1.34375 3.515625q-1.34375 1.34375 -3.515625 1.34375q-2.171875 0 -3.59375 -1.34375q-1.40625 -1.34375 -1.40625 -3.515625l0 -60.171875q0 -2.171875 1.40625 -3.578125q1.421875 -1.40625 3.59375 -1.40625q2.171875 0 3.515625 1.40625q1.34375 1.40625 1.34375 3.578125l0 4.359375q4.21875 -4.734375 10.234375 -7.421875q6.015625 -2.6875 13.0625 -2.6875zm106.37479 63.734375q1.140625 1.28125 1.140625 2.953125q0 1.921875 -1.78125 3.453125q-1.546875 1.15625 -3.078125 1.15625q-2.046875 0 -3.453125 -1.796875l-26.375 -32.375l-9.59375 8.703125l0 20.09375q0 2.171875 -1.34375 3.515625q-1.34375 1.34375 -3.515625 1.34375q-2.1875 0 -3.53125 -1.34375q-1.34375 -1.34375 -1.34375 -3.515625l0 -90.25q0 -2.171875 1.34375 -3.515625q1.34375 -1.34375 3.53125 -1.34375q2.171875 0 3.515625 1.34375q1.34375 1.34375 1.34375 3.515625l0 58.25l36.09375 -32.640625q1.40625 -1.28125 3.078125 -1.28125q1.921875 0 3.1875 1.53125q1.421875 1.671875 1.421875 3.078125q0 1.78125 -1.671875 3.203125l-25.59375 23.15625l26.625 32.765625z" fill-rule="nonzero"></path><path fill="#ffffff" d="m353.40945 361.37796l0 0c0 -2.7657776 2.242096 -5.0078735 5.0078735 -5.0078735l0 0c1.3281555 0 2.6019287 0.5276184 3.5411072 1.4667664c0.93914795 0.93914795 1.4667664 2.2129211 1.4667664 3.5411072l0 0c0 2.7657776 -2.242096 5.0078735 -5.0078735 5.0078735l0 0c-2.7657776 0 -5.0078735 -2.242096 -5.0078735 -5.0078735z" fill-rule="evenodd"></path><path stroke="#ffffff" stroke-width="1.0" stroke-linejoin="round" stroke-linecap="butt" d="m353.40945 361.37796l0 0c0 -2.7657776 2.242096 -5.0078735 5.0078735 -5.0078735l0 0c1.3281555 0 2.6019287 0.5276184 3.5411072 1.4667664c0.93914795 0.93914795 1.4667664 2.2129211 1.4667664 3.5411072l0 0c0 2.7657776 -2.242096 5.0078735 -5.0078735 5.0078735l0 0c-2.7657776 0 -5.0078735 -2.242096 -5.0078735 -5.0078735z" fill-rule="evenodd"></path><path fill="#ffffff" d="m379.4252 361.37796l0 0c0 -2.7657776 2.242096 -5.0078735 5.0078735 -5.0078735l0 0c1.3281555 0 2.6019287 0.5276184 3.5411072 1.4667664c0.93914795 0.93914795 1.4667664 2.2129211 1.4667664 3.5411072l0 0c0 2.7657776 -2.242096 5.0078735 -5.0078735 5.0078735l0 0c-2.7657776 0 -5.0078735 -2.242096 -5.0078735 -5.0078735z" fill-rule="evenodd"></path><path stroke="#ffffff" stroke-width="1.0" stroke-linejoin="round" stroke-linecap="butt" d="m379.4252 361.37796l0 0c0 -2.7657776 2.242096 -5.0078735 5.0078735 -5.0078735l0 0c1.3281555 0 2.6019287 0.5276184 3.5411072 1.4667664c0.93914795 0.93914795 1.4667664 2.2129211 1.4667664 3.5411072l0 0c0 2.7657776 -2.242096 5.0078735 -5.0078735 5.0078735l0 0c-2.7657776 0 -5.0078735 -2.242096 -5.0078735 -5.0078735z" fill-rule="evenodd"></path><path fill="#000000" fill-opacity="0.0" d="m463.5328 285.5538l36.031494 1.0078735" fill-rule="evenodd"></path><path stroke="#ffffff" stroke-width="4.0" stroke-linejoin="round" stroke-linecap="butt" d="m463.5328 285.5538l36.031494 1.0078735" fill-rule="evenodd"></path><defs><linearGradient id="p.2" gradientUnits="userSpaceOnUse" gradientTransform="matrix(4.28135094744933 1.5112221593680797 -1.5112221593680797 4.28135094744933 0.0 0.0)" spreadMethod="pad" x1="90.17115078067421" y1="37.196320504618654" x2="90.17113271532106" y2="41.477671452029874"><stop offset="0.0" stop-color="#ff009e" stop-opacity="0.44313726"></stop><stop offset="1.0" stop-color="#ff009e" stop-opacity="0.65882355"></stop></linearGradient></defs><path fill="url(#p.2)" d="m329.84244 295.5192l15.217743 5.371521l-14.078278 15.644409z" fill-rule="evenodd"></path><defs><linearGradient id="p.3" gradientUnits="userSpaceOnUse" gradientTransform="matrix(-5.331558441533315 -1.1068185252159253 -1.1068185252159253 5.331558441533315 0.0 0.0)" spreadMethod="pad" x1="-82.92340781814325" y1="64.53738423763564" x2="-82.92343041249238" y2="69.86894267912106"><stop offset="0.0" stop-color="#ff009e" stop-opacity="0.44313726"></stop><stop offset="1.0" stop-color="#ff009e" stop-opacity="0.65882355"></stop></linearGradient></defs><path fill="url(#p.3)" d="m369.4996 441.55118l-17.443726 -9.551361l-5.9010315 28.425446l18.623901 3.866272z" fill-rule="evenodd"></path><defs><linearGradient id="p.4" gradientUnits="userSpaceOnUse" gradientTransform="matrix(5.273617120842744 -1.5794451079882361 1.5794451079882361 5.273617120842744 0.0 0.0)" spreadMethod="pad" x1="76.54196660857393" y1="105.78366868393653" x2="76.54194425977145" y2="111.05728580473192"><stop offset="0.0" stop-color="#ff009e" stop-opacity="0.44313726"></stop><stop offset="1.0" stop-color="#ff009e" stop-opacity="0.65882355"></stop></linearGradient></defs><path fill="url(#p.4)" d="m572.3984 442.531l16.555481 -11.01944l8.329346 27.810944l-18.221313 5.4572754z" fill-rule="evenodd"></path><defs><linearGradient id="p.5" gradientUnits="userSpaceOnUse" gradientTransform="matrix(-4.793865433799122 -0.6822037859316283 -0.6822037859316283 4.793865433799122 0.0 0.0)" spreadMethod="pad" x1="-94.39643248906279" y1="79.92370482432267" x2="-94.39644942797793" y2="84.71757025809187"><stop offset="0.0" stop-color="#ff009e" stop-opacity="0.44313726"></stop><stop offset="1.0" stop-color="#ff009e" stop-opacity="0.65882355"></stop></linearGradient></defs><path fill="url(#p.5)" d="m397.34546 452.13736l-18.197968 -7.2789917l-3.2703857 22.981049l18.85205 2.6828003z" fill-rule="evenodd"></path><path fill="#ffffff" d="m411.6774 295.5192l-15.217743 5.371521l14.078247 15.644409z" fill-rule="evenodd"></path><defs><linearGradient id="p.6" gradientUnits="userSpaceOnUse" gradientTransform="matrix(4.771645075384948 -0.9469663815172198 0.9469663815172198 4.771645075384948 0.0 0.0)" spreadMethod="pad" x1="92.06468492517637" y1="112.19222819043883" x2="92.06466806474612" y2="116.96387326579399"><stop offset="0.0" stop-color="#ff009e" stop-opacity="0.44313726"></stop><stop offset="1.0" stop-color="#ff009e" stop-opacity="0.65882355"></stop></linearGradient></defs><path fill="url(#p.6)" d="m546.446 452.71307l17.773987 -8.260437l4.5186157 22.768555l-18.677734 3.706726z" fill-rule="evenodd"></path><defs><linearGradient id="p.7" gradientUnits="userSpaceOnUse" gradientTransform="matrix(4.251245712762967 -1.6833791239445712 1.6833791239445712 4.251245712762967 0.0 0.0)" spreadMethod="pad" x1="97.69991133260848" y1="109.56088740925982" x2="97.69989339433303" y2="113.81213312198494"><stop offset="0.0" stop-color="#ff009e" stop-opacity="0.44313726"></stop><stop offset="1.0" stop-color="#ff009e" stop-opacity="0.65882355"></stop></linearGradient></defs><path fill="url(#p.7)" d="m599.7789 301.30435l15.004456 -5.9413757l-0.3451538 21.043427z" fill-rule="evenodd"></path></g></svg>

