<svg width="192" height="192" xmlns="http://www.w3.org/2000/svg">
 <!-- Created with Method Draw - http://github.com/duopixel/Method-Draw/ -->

 <g>
  <title>background</title>
  <rect fill="none" id="canvas_background" height="194" width="194" y="-1" x="-1"/>
  <g display="none" overflow="visible" y="0" x="0" height="100%" width="100%" id="canvasGrid">
   <rect fill="url(#gridpattern)" stroke-width="0" y="0" x="0" height="100%" width="100%"/>
  </g>
 </g>
 <g>
  <title>Layer 1</title>
  <g stroke="null" id="svg_29">
   <rect stroke="null" transform="matrix(0.389629109647488,0,0,0.389629109647488,-1306.6306991341537,-1028.3974479309047) " id="svg_55" fill="#FF969F" height="32.946" width="68.604" y="2882.512828" x="3776.523453"/>
   <path stroke="null" id="svg_56" fill="#FF717D" d="m17.402442,81.201511c4.665029,-12.691389 13.648707,-23.295924 25.178223,-30.021702l0,-24.077131c10.462321,0 19.270276,7.061248 21.933391,16.676516c2.340891,-0.288715 4.724253,-0.439502 7.14346,-0.439502l43.920162,0c31.917637,0 57.792517,25.87449 57.792517,57.792517c0,27.565091 -19.300278,50.619835 -45.123337,56.395697l0,21.807541l-23.0902,0l0,-20.410721l-23.078511,0l0,20.4115l-23.0902,0l0,-21.814944c-19.259756,-4.309298 -34.893625,-18.221785 -41.593686,-36.457596l-15.937,0l0,-39.862175l15.945182,0z"/>
   <path stroke="null" id="svg_57" fill="#FF969F" d="m93.617403,43.339692l-21.960276,0c-2.418818,0 -4.802569,0.151176 -7.14346,0.439502c-2.662725,-9.614877 -11.470291,-16.676516 -21.933391,-16.676516l0,24.077131c-11.529125,6.725388 -20.513193,17.330313 -25.178223,30.021702l-15.944792,0l0,39.861785l15.93661,0c6.700452,18.236201 22.33393,32.148687 41.593687,36.457596l0,21.815334l23.0902,0l0,-20.41111l11.539256,0l0,-115.585424l0.00039,0z"/>
   <g stroke="null" transform="matrix(0.389629109647488,0,0,0.389629109647488,-1306.6306991341537,-1028.3974479309047) " id="svg_60">
    <circle stroke="null" id="svg_58" fill="#E21B4E" r="17.188999" cy="2847.833804" cx="3462.811365"/>
    <rect stroke="null" id="svg_59" fill="#E21B4E" height="31.115" width="129.738" y="2774.632804" x="3528.928365"/>
   </g>
   <rect stroke="null" transform="matrix(0.389629109647488,0,0,0.389629109647488,-1306.6306991341537,-1028.3974479309047) " id="svg_61" fill="#FF717D" height="31.115" width="64.864" y="2774.632828" x="3528.928453"/>
   <g stroke="null" transform="matrix(0.389629109647488,0,0,0.389629109647488,-1306.6306991341537,-1028.3974479309047) " id="svg_62"/>
   <g stroke="null" transform="matrix(0.389629109647488,0,0,0.389629109647488,-1306.6306991341537,-1028.3974479309047) " id="svg_63"/>
   <g stroke="null" transform="matrix(0.389629109647488,0,0,0.389629109647488,-1306.6306991341537,-1028.3974479309047) " id="svg_64"/>
   <g stroke="null" transform="matrix(0.389629109647488,0,0,0.389629109647488,-1306.6306991341537,-1028.3974479309047) " id="svg_65"/>
   <g stroke="null" transform="matrix(0.389629109647488,0,0,0.389629109647488,-1306.6306991341537,-1028.3974479309047) " id="svg_66"/>
   <g stroke="null" transform="matrix(0.389629109647488,0,0,0.389629109647488,-1306.6306991341537,-1028.3974479309047) " id="svg_67"/>
   <g stroke="null" transform="matrix(0.389629109647488,0,0,0.389629109647488,-1306.6306991341537,-1028.3974479309047) " id="svg_68"/>
   <g stroke="null" transform="matrix(0.389629109647488,0,0,0.389629109647488,-1306.6306991341537,-1028.3974479309047) " id="svg_69"/>
   <g stroke="null" transform="matrix(0.389629109647488,0,0,0.389629109647488,-1306.6306991341537,-1028.3974479309047) " id="svg_70"/>
   <g stroke="null" transform="matrix(0.389629109647488,0,0,0.389629109647488,-1306.6306991341537,-1028.3974479309047) " id="svg_71"/>
   <g stroke="null" transform="matrix(0.389629109647488,0,0,0.389629109647488,-1306.6306991341537,-1028.3974479309047) " id="svg_72"/>
   <g stroke="null" transform="matrix(0.389629109647488,0,0,0.389629109647488,-1306.6306991341537,-1028.3974479309047) " id="svg_73"/>
   <g stroke="null" transform="matrix(0.389629109647488,0,0,0.389629109647488,-1306.6306991341537,-1028.3974479309047) " id="svg_74"/>
   <g stroke="null" transform="matrix(0.389629109647488,0,0,0.389629109647488,-1306.6306991341537,-1028.3974479309047) " id="svg_75"/>
   <g stroke="null" transform="matrix(0.389629109647488,0,0,0.389629109647488,-1306.6306991341537,-1028.3974479309047) " id="svg_76"/>
   <circle stroke="null" transform="matrix(0.389629109647488,0,0,0.389629109647488,-1306.6306991341537,-1028.3974479309047) " id="svg_77" fill="#FBB500" r="60.641998" cy="2728.693445" cx="3595.212113"/>
   <path stroke="null" id="svg_78" fill="#FFCE47" d="m93.617403,11.153061c-13.049458,0 -23.628278,10.57882 -23.628278,23.628278s10.57882,23.628278 23.628278,23.628278l0,-47.256556z"/>
  </g>
 </g>
</svg>